<svg xmlns="http://www.w3.org/2000/svg" width="255.993" height="234.269" viewBox="0 0 255.993 234.269">
  <path id="instagram-filled" d="M154.552,119.7c0-12.679-11.316-22.993-25.231-22.993S104.1,107.025,104.1,119.7,115.415,142.7,129.322,142.7,154.552,132.383,154.552,119.7ZM192.032.022H63.993C28.72.022.016,26.175.016,58.329V74.578h94.14a65.387,65.387,0,0,1,70.332,0H256V58.329C256,26.175,227.3.022,192.032.022Zm25.907,55.459c0,3.564-3.2,6.476-7.11,6.476H188.865c-3.907,0-7.11-2.919-7.11-6.476V35.459c0-3.564,3.2-6.476,7.11-6.476h21.964c3.907,0,7.11,2.912,7.11,6.476ZM190.089,119.7c0,30.544-27.259,55.388-60.767,55.388S68.555,150.248,68.555,119.7a51.028,51.028,0,0,1,5.772-23.527H.016v79.807c0,32.154,28.7,58.307,63.977,58.307H192.032c35.273,0,63.977-26.153,63.977-58.307V96.17H184.317a51.048,51.048,0,0,1,5.772,23.527Z" transform="translate(-0.016 -0.022)" fill="#2237c3"/>
</svg>
