<svg xmlns="http://www.w3.org/2000/svg" width="229.316" height="215.279" viewBox="0 0 229.316 215.279">
  <path id="youtube" d="M146.611,149.445v25.349q0,8.049-6.031,8.049a11.267,11.267,0,0,1-6.963-2.643V144.04a11.267,11.267,0,0,1,6.963-2.643q6.031,0,6.031,8.049Zm52.3.12v5.525H184.985v-5.525q0-8.169,6.963-8.169t6.963,8.169ZM49.438,123.379H66v-11.29H17.712v11.29H33.956v68.357H49.43V123.379ZM94,191.736h13.772V132.391H94V177.8q-4.645,5.047-8.819,5.047a2.9,2.9,0,0,1-3.25-2.524,26.1,26.1,0,0,1-.154-4.2V132.391H68.008v46.973q0,5.884,1.24,8.773,1.856,4.443,8.973,4.443,7.425,0,15.782-7.325v6.488Zm66.379-17.778V150.289q0-8.773-1.394-11.894-2.634-6.727-10.984-6.727-7.733,0-14.388,6.488V112.083H119.845V191.73h13.772v-5.765q6.963,6.608,14.388,6.608,8.357,0,10.984-6.608,1.394-3.241,1.394-12.014Zm52.3-1.2v-1.561H198.6a46.4,46.4,0,0,1-.308,7.325q-1.086,4.324-6.193,4.324-7.117,0-7.117-8.288V164.1h27.7V151.73q0-9.49-4.175-13.933-6.031-6.129-16.4-6.129-10.521,0-16.56,6.129-4.336,4.443-4.336,13.933v20.78q0,9.49,4.49,13.933,6.031,6.129,16.714,6.129,11.138,0,16.714-6.369a12.843,12.843,0,0,0,3.25-6.488,41.344,41.344,0,0,0,.308-6.967ZM118.605,63.071V37.841q0-8.288-6.655-8.288T105.3,37.841V63.071q0,8.408,6.655,8.408T118.605,63.071Zm111.253,90.22q0,28.112-4.021,42.045a22.463,22.463,0,0,1-8.973,11.894,31.113,31.113,0,0,1-15.782,5.525q-28.468,2.524-85.882,2.524t-85.882-2.524A31.632,31.632,0,0,1,13.46,207.23a21.54,21.54,0,0,1-8.9-11.894Q.543,181.881.543,153.29q0-28.112,4.021-42.045a22.463,22.463,0,0,1,8.973-11.894,32.185,32.185,0,0,1,15.936-5.645q28.314-2.4,85.72-2.4t85.882,2.4a32.531,32.531,0,0,1,15.859,5.645,21.54,21.54,0,0,1,8.9,11.894q4.021,13.455,4.021,42.045ZM75.433,0H91.216L72.491,47.935V80.49H57.017V47.935q-2.164-8.892-9.435-25.469Q41.851,10.094,37.522,0h16.4L64.9,31.592Zm57.252,40.006V61.032q0,9.729-4.336,14.179-5.877,6.129-16.4,6.129-10.367,0-16.244-6.129Q91.37,70.647,91.37,61.032V40.006q0-9.61,4.336-14.053,5.877-6.129,16.244-6.129,10.521,0,16.4,6.129Q132.685,30.4,132.685,40.006Zm51.837-19.459V80.5h-14.08V73.888q-8.2,7.451-15.936,7.451-7.117,0-9.127-4.443-1.24-2.882-1.24-9.012V20.541h14.08v44.09a24.576,24.576,0,0,0,.154,4.2,2.934,2.934,0,0,0,3.25,2.643q4.175,0,8.819-5.167V20.541h14.08Z" transform="translate(-0.543)" fill="#2237c3"/>
</svg>
